# xmcd
#
# Track frame offsets: 
#        150
#        4782
#        32805
#        45479
#        70920
#        83369
#        95227
#        102393
#        119626
#        138428
#        163323
#        184074
#        248723
#        271937
#        303937
#
# Disc length: 4443 seconds
#
# Revision: 0
# Processed by: cddbd v1.5.1PL2 Copyright (c) Steve Scherf et al.
# Submitted via: ExactAudioCopy v0.95a5
#
DISCID=ca11590f
DTITLE=Die Schnitzerneggl - Net soch sowas
DYEAR=1997
DGENRE=Cabaret
TTITLE0=Der Erzähler
TTITLE1=Drei alte Männer auf der Bank 1
TTITLE2=Die letzte Budji
TTITLE3=Drei alte Männer auf der Bank 2
TTITLE4=Net soch sowas
TTITLE5=Der Krawattenkauf
TTITLE6=Des is schee
TTITLE7=Drei alte Männer auf der Bank 3
TTITLE8=Das Alte-Männer-Lied
TTITLE9=Drei alte Männer auf der Bank 4
TTITLE10=Wie schön war doch die Kinderzeit
TTITLE11=Die Nachhilfestunde beim Kaplan
TTITLE12=Nemetker-Hymne der Schnitzerneggl
TTITLE13=Der Schepp-Naz
TTITLE14=Wir wolla Schnitzerneggl
EXTD=
EXTT0=
EXTT1=
EXTT2=
EXTT3=
EXTT4=
EXTT5=
EXTT6=
EXTT7=
EXTT8=
EXTT9=
EXTT10=
EXTT11=
EXTT12=
EXTT13=
EXTT14=
PLAYORDER=
